<svg width="601" height="600" viewBox="0 0 601 600" fill="none" xmlns="http://www.w3.org/2000/svg">
<path d="M305.495 433.391C349.586 433.391 385.328 427.918 385.328 421.166C385.328 414.413 349.586 408.94 305.495 408.94C261.404 408.94 225.661 414.413 225.661 421.166C225.661 427.918 261.404 433.391 305.495 433.391Z" fill="#010101" fill-opacity="0.51"/>
<path d="M342.984 297.826C359.046 295.652 436.243 271.739 444.533 250.494C444.533 250.494 385.987 289.13 353.347 286.957C353.676 284.312 352.03 291.546 353.347 286.957C341.43 293.913 327.065 308.772 321.225 318.261C321.225 318.261 324.597 293.973 338.417 261.383C352.73 251.271 415.182 200.554 415.182 200.554C394.692 216.732 350.125 248.813 337.193 248.813C330.777 259.781 345.008 241.127 337.193 248.813C337.193 248.813 340.967 250.494 316.207 283.551C316.207 283.551 300.166 264.204 295.971 234.336C298.768 229.902 378.313 176.99 390.241 165.323C390.241 165.323 307.405 215.803 295.971 229.181C294.408 214.714 310.86 155.445 314.15 133.043C314.15 133.043 291.282 197.524 288.238 215.336C282.316 204.214 289.882 215.977 284.782 212.243C294.982 220.488 288.238 215.336 288.238 215.336C286.675 229.881 283.056 214.17 288.238 229.181C288.238 229.181 233.208 172.027 191.698 156.342C191.698 156.342 266.752 217.069 282.266 242.808C286.543 245.763 299.344 304.63 297.781 329.053C297.781 329.053 232.713 278.573 207.212 261.383C207.212 261.383 248.918 302.685 263.972 314.274C256.815 314.197 272.444 308.674 263.972 314.274C282.809 330.764 303.95 342.509 294.326 403.101C293.585 408.546 292.845 413.446 291.858 417.802C296.3 417.802 300.66 417.879 305.102 418.035C311.6 418.268 318.099 418.346 324.597 418.579C322.788 406.912 321.472 391.589 321.225 371.444C320.649 328.508 335.538 322.99 350.427 310C358.9 311.011 408.421 330.297 419.443 340.72C419.526 340.642 363.709 297.826 342.984 297.826Z" fill="#825F3F"/>
<path d="M182.629 245.498C182.76 245.978 185.934 257.3 193.524 261.965L193.68 262.059C201.382 266.664 210.418 262.52 210.799 262.341C211.118 262.192 211.392 261.862 211.55 261.438C211.709 261.014 211.735 260.537 211.623 260.129C211.492 259.65 208.32 248.326 200.729 243.659L200.574 243.565C192.871 238.963 183.834 243.107 183.454 243.286C183.134 243.435 182.86 243.765 182.702 244.189C182.544 244.613 182.517 245.091 182.629 245.498Z" fill="#4EB14C"/>
<path d="M221.444 305.607C221.695 305.304 227.682 298.178 235.782 296.086L235.948 296.044C244.132 294.008 251.086 297.99 251.378 298.161C251.623 298.304 251.777 298.56 251.801 298.865C251.826 299.169 251.717 299.491 251.504 299.748C251.253 300.05 245.267 307.179 237.165 309.271L237 309.313C228.815 311.347 221.862 307.365 221.57 307.195C221.324 307.052 221.17 306.795 221.146 306.49C221.122 306.186 221.231 305.864 221.444 305.607Z" fill="#4EB14C"/>
<path d="M246.97 268.611C247.283 268.85 254.653 274.55 256.947 282.486L256.993 282.649C259.233 290.67 255.329 297.655 255.161 297.948C255.021 298.194 254.763 298.354 254.454 298.387C254.145 298.42 253.816 298.322 253.55 298.119C253.237 297.88 245.865 292.182 243.57 284.244L243.524 284.082C241.286 276.06 245.191 269.075 245.358 268.782C245.499 268.536 245.756 268.376 246.065 268.343C246.374 268.31 246.704 268.408 246.97 268.611Z" fill="#4EB14C"/>
<path d="M194.856 284.039C195.085 283.765 200.549 277.33 208.464 275.859L208.626 275.829C216.629 274.417 223.823 278.69 224.125 278.873C224.379 279.026 224.55 279.282 224.595 279.576C224.64 279.869 224.554 280.17 224.36 280.403C224.131 280.676 218.668 287.114 210.752 288.586L210.59 288.615C202.587 290.025 195.393 285.752 195.091 285.569C194.837 285.416 194.666 285.159 194.621 284.866C194.576 284.573 194.662 284.271 194.856 284.039Z" fill="#4EB14C"/>
<path d="M220.395 249.845C220.723 250.042 228.447 254.736 231.54 262.064L231.603 262.214C234.653 269.629 231.68 276.666 231.552 276.962C231.444 277.21 231.214 277.388 230.921 277.45C230.628 277.513 230.3 277.452 230.021 277.286C229.694 277.089 221.969 272.396 218.874 265.067L218.812 264.917C215.763 257.502 218.737 250.465 218.865 250.169C218.972 249.92 219.202 249.742 219.496 249.68C219.789 249.619 220.117 249.679 220.395 249.845Z" fill="#4EB14C"/>
<path d="M170.197 140.677C170.327 141.157 173.486 152.491 181.066 157.152L181.221 157.247C188.914 161.848 197.95 157.685 198.33 157.506C198.65 157.355 198.924 157.025 199.082 156.6C199.241 156.176 199.268 155.697 199.157 155.29C199.027 154.809 195.87 143.475 188.289 138.811L188.134 138.717C180.441 134.119 171.404 138.281 171.024 138.461C170.704 138.611 170.43 138.941 170.271 139.366C170.113 139.791 170.085 140.269 170.197 140.677Z" fill="#4CA5B1"/>
<path d="M206.698 202.999C206.95 202.696 212.944 195.561 221.044 193.459L221.21 193.417C229.395 191.37 236.341 195.344 236.632 195.514C236.877 195.656 237.031 195.913 237.054 196.217C237.078 196.522 236.969 196.844 236.756 197.101C236.504 197.404 230.511 204.541 222.409 206.644L222.244 206.686C214.059 208.731 207.113 204.757 206.822 204.587C206.577 204.444 206.423 204.188 206.399 203.883C206.376 203.579 206.485 203.256 206.698 202.999Z" fill="white"/>
<path d="M236.379 158.863C236.692 159.101 244.059 164.798 246.349 172.735L246.395 172.897C248.63 180.919 244.722 187.906 244.555 188.2C244.414 188.446 244.156 188.606 243.847 188.639C243.539 188.672 243.209 188.575 242.943 188.372C242.631 188.133 235.263 182.438 232.972 174.5L232.926 174.338C230.693 166.316 234.6 159.328 234.768 159.035C234.909 158.789 235.166 158.628 235.475 158.595C235.784 158.563 236.114 158.66 236.379 158.863Z" fill="#4CA5B1"/>
<path d="M182.408 179.228C182.637 178.954 188.109 172.51 196.024 171.028L196.186 170.998C204.189 169.575 211.375 173.841 211.677 174.023C211.93 174.176 212.101 174.432 212.146 174.725C212.191 175.018 212.104 175.32 211.91 175.553C211.681 175.826 206.21 182.273 198.293 183.755L198.132 183.785C190.129 185.206 182.942 180.94 182.641 180.758C182.387 180.605 182.216 180.349 182.171 180.056C182.127 179.763 182.213 179.46 182.408 179.228Z" fill="#4CA5B1"/>
<path d="M207.74 140.726C208.067 140.922 215.783 145.609 218.865 152.936L218.928 153.086C221.968 160.501 218.986 167.546 218.857 167.842C218.75 168.091 218.52 168.269 218.226 168.332C217.933 168.394 217.605 168.334 217.327 168.168C217 167.972 209.283 163.287 206.199 155.957L206.137 155.808C203.099 148.393 206.081 141.347 206.209 141.051C206.317 140.802 206.547 140.624 206.841 140.562C207.134 140.5 207.462 140.56 207.74 140.726Z" fill="#4CA5B1"/>
<path d="M321.766 106.236C321.393 106.504 312.618 112.886 310.878 121.227L310.843 121.398C309.189 129.824 315.448 136.76 315.715 137.051C315.939 137.295 316.304 137.442 316.715 137.455C317.127 137.468 317.545 137.345 317.861 137.118C318.234 136.85 327.012 130.47 328.753 122.127L328.788 121.956C330.439 113.531 324.18 106.594 323.913 106.303C323.689 106.059 323.324 105.912 322.912 105.899C322.501 105.886 322.083 106.009 321.766 106.236Z" fill="#8D5175"/>
<path d="M277.061 163.442C277.446 163.54 286.544 165.912 291.59 172.678L291.693 172.817C296.718 179.689 295.493 188.217 295.438 188.576C295.392 188.878 295.203 189.147 294.919 189.313C294.636 189.48 294.285 189.527 293.958 189.444C293.573 189.347 284.474 186.976 279.426 180.21L279.324 180.071C274.301 173.198 275.526 164.67 275.581 164.31C275.626 164.008 275.816 163.74 276.099 163.573C276.383 163.407 276.734 163.359 277.061 163.442Z" fill="white"/>
<path d="M324.708 172.283C324.599 172.69 321.975 182.291 315.184 188.142L315.044 188.262C308.149 194.101 299.839 193.663 299.489 193.641C299.195 193.623 298.938 193.454 298.785 193.178C298.631 192.902 298.596 192.546 298.688 192.201C298.796 191.795 301.418 182.192 308.211 176.339L308.35 176.22C315.247 170.383 323.557 170.821 323.907 170.843C324.201 170.861 324.458 171.03 324.611 171.306C324.764 171.582 324.8 171.939 324.708 172.283Z" fill="white"/>
<path d="M289.907 131.77C290.257 131.861 298.502 134.064 302.895 140.911L302.984 141.051C307.354 148.01 305.952 156.846 305.89 157.218C305.839 157.531 305.657 157.813 305.392 157.993C305.127 158.172 304.804 158.231 304.508 158.154C304.159 158.064 295.913 155.863 291.518 149.014L291.429 148.874C287.061 141.915 288.463 133.079 288.525 132.706C288.577 132.393 288.759 132.111 289.024 131.931C289.289 131.752 289.611 131.694 289.907 131.77Z" fill="#8D5175"/>
<path d="M331.976 139.933C331.921 140.339 330.554 149.934 324.669 156.591L324.548 156.727C318.56 163.389 310.42 164.264 310.077 164.298C309.789 164.327 309.518 164.205 309.335 163.965C309.151 163.725 309.073 163.389 309.12 163.045C309.175 162.639 310.54 153.043 316.426 146.384L316.547 146.249C322.536 139.589 330.676 138.713 331.019 138.679C331.308 138.651 331.578 138.772 331.762 139.013C331.945 139.253 332.023 139.589 331.976 139.933Z" fill="#8D5175"/>
<path d="M411.653 148.115C411.199 148.049 400.474 146.57 393.851 151.4L393.716 151.5C387.104 156.451 387.453 165.826 387.472 166.222C387.487 166.555 387.67 166.915 387.975 167.21C388.279 167.506 388.675 167.707 389.06 167.763C389.514 167.828 400.24 169.31 406.865 164.479L407 164.38C413.609 159.427 413.26 150.052 413.242 149.656C413.227 149.323 413.043 148.963 412.738 148.667C412.434 148.372 412.038 148.17 411.653 148.115Z" fill="#B5B75E"/>
<path d="M343.412 163.889C343.604 164.243 348.101 172.634 346.987 180.703L346.963 180.868C345.764 188.988 339.3 193.403 339.025 193.586C338.795 193.741 338.491 193.765 338.191 193.654C337.892 193.544 337.626 193.307 337.463 193.007C337.271 192.654 332.772 184.263 333.886 176.192L333.909 176.028C335.111 167.909 341.575 163.494 341.85 163.31C342.08 163.156 342.384 163.131 342.684 163.242C342.983 163.353 343.249 163.59 343.412 163.889Z" fill="white"/>
<path d="M372.699 203.203C372.359 203.383 364.304 207.581 356.087 206.207L355.919 206.178C347.644 204.718 342.643 198.141 342.435 197.861C342.26 197.627 342.209 197.324 342.294 197.03C342.38 196.735 342.595 196.479 342.883 196.326C343.222 196.147 351.277 191.947 359.495 193.32L359.663 193.349C367.937 194.812 372.938 201.389 373.147 201.668C373.322 201.902 373.373 202.206 373.287 202.5C373.201 202.794 372.986 203.051 372.699 203.203Z" fill="white"/>
<path d="M372.491 147.518C372.661 147.841 376.613 155.519 374.942 163.24L374.907 163.398C373.147 171.173 366.343 175.762 366.054 175.953C365.812 176.114 365.504 176.156 365.211 176.07C364.917 175.983 364.666 175.776 364.522 175.501C364.353 175.178 360.399 167.501 362.07 159.778L362.104 159.621C363.867 151.846 370.671 147.257 370.96 147.066C371.202 146.905 371.51 146.863 371.803 146.949C372.097 147.036 372.348 147.244 372.491 147.518Z" fill="#B5B75E"/>
<path d="M401.05 181.599C400.745 181.812 393.51 186.808 385.67 186.616L385.51 186.612C377.607 186.347 372.367 180.864 372.148 180.63C371.964 180.435 371.892 180.158 371.948 179.872C372.005 179.585 372.186 179.317 372.444 179.136C372.749 178.923 379.983 173.925 387.825 174.116L387.985 174.121C395.887 174.388 401.127 179.871 401.346 180.104C401.53 180.3 401.603 180.577 401.546 180.864C401.489 181.15 401.308 181.418 401.05 181.599Z" fill="#B5B75E"/>
<path d="M436.522 189.854C436.068 189.789 425.343 188.309 418.72 193.14L418.585 193.239C411.973 198.19 412.322 207.565 412.341 207.961C412.356 208.294 412.539 208.654 412.844 208.949C413.148 209.245 413.544 209.446 413.929 209.502C414.383 209.567 425.109 211.05 431.734 206.218L431.869 206.119C438.478 201.166 438.129 191.791 438.111 191.395C438.096 191.062 437.912 190.702 437.607 190.406C437.303 190.111 436.907 189.909 436.522 189.854Z" fill="#2692CE"/>
<path d="M368.281 205.629C368.473 205.982 372.97 214.373 371.856 222.442L371.832 222.607C370.633 230.727 364.169 235.142 363.894 235.325C363.664 235.48 363.36 235.505 363.06 235.394C362.761 235.283 362.495 235.047 362.332 234.747C362.14 234.393 357.641 226.003 358.755 217.931L358.778 217.767C359.98 209.648 366.444 205.233 366.719 205.049C366.949 204.895 367.253 204.87 367.553 204.981C367.852 205.093 368.118 205.329 368.281 205.629Z" fill="white"/>
<path d="M397.568 244.942C397.228 245.122 389.173 249.32 380.956 247.946L380.788 247.917C372.513 246.457 367.512 239.88 367.304 239.601C367.129 239.366 367.078 239.063 367.163 238.769C367.249 238.475 367.464 238.218 367.752 238.066C368.091 237.886 376.146 233.686 384.364 235.06L384.532 235.088C392.806 236.551 397.807 243.128 398.016 243.407C398.191 243.642 398.242 243.945 398.156 244.239C398.07 244.533 397.855 244.79 397.568 244.942Z" fill="white"/>
<path d="M397.36 189.257C397.53 189.58 401.482 197.258 399.811 204.979L399.776 205.137C398.016 212.912 391.212 217.501 390.923 217.692C390.681 217.853 390.373 217.896 390.08 217.809C389.786 217.723 389.535 217.515 389.391 217.241C389.222 216.918 385.268 209.241 386.939 201.517L386.973 201.36C388.736 193.585 395.54 188.996 395.829 188.805C396.071 188.644 396.379 188.602 396.672 188.688C396.966 188.775 397.217 188.983 397.36 189.257Z" fill="white"/>
<path d="M425.919 223.338C425.614 223.551 418.379 228.548 410.539 228.356L410.379 228.351C402.476 228.086 397.236 222.603 397.017 222.37C396.833 222.174 396.761 221.897 396.817 221.611C396.874 221.324 397.055 221.056 397.313 220.875C397.618 220.662 404.852 215.664 412.694 215.856L412.854 215.86C420.756 216.127 425.996 221.61 426.215 221.844C426.399 222.04 426.472 222.316 426.415 222.603C426.358 222.889 426.177 223.158 425.919 223.338Z" fill="#2692CE"/>
<path d="M475.448 243.953C475.008 243.813 464.582 240.574 456.94 244.217L456.784 244.292C449.129 248.055 447.514 257.323 447.449 257.715C447.394 258.045 447.503 258.429 447.746 258.77C447.988 259.111 448.343 259.375 448.716 259.494C449.156 259.633 459.582 262.875 467.226 259.232L467.382 259.157C475.036 255.392 476.651 246.124 476.716 245.731C476.77 245.402 476.662 245.017 476.419 244.676C476.176 244.336 475.822 244.071 475.448 243.953Z" fill="#DFB212"/>
<path d="M404.525 245.407C404.645 245.789 407.42 254.843 404.662 262.544L404.605 262.701C401.751 270.436 394.399 273.568 394.088 273.697C393.826 273.806 393.518 273.774 393.242 273.61C392.966 273.446 392.749 273.165 392.647 272.841C392.528 272.459 389.75 263.405 392.509 255.702L392.565 255.545C395.421 247.811 402.773 244.68 403.084 244.55C403.346 244.442 403.654 244.474 403.931 244.638C404.206 244.802 404.423 245.083 404.525 245.407Z" fill="#DFB212"/>
<path d="M425.188 289.571C424.814 289.683 415.946 292.279 408.019 289.387L407.858 289.327C399.889 286.34 396.199 278.958 396.047 278.645C395.918 278.383 395.927 278.076 396.071 277.804C396.214 277.532 396.479 277.321 396.797 277.226C397.17 277.114 406.038 274.516 413.967 277.408L414.128 277.468C422.096 280.457 425.786 287.839 425.939 288.152C426.067 288.415 426.058 288.721 425.915 288.993C425.771 289.265 425.505 289.476 425.188 289.571Z" fill="white"/>
<path d="M436.737 235.595C436.841 235.944 439.239 244.199 436.016 251.447L435.949 251.595C432.626 258.88 424.909 262.103 424.582 262.236C424.308 262.348 423.992 262.332 423.717 262.193C423.441 262.053 423.232 261.803 423.144 261.508C423.04 261.16 420.639 252.905 423.863 245.654L423.929 245.507C427.255 238.223 434.972 235 435.298 234.867C435.573 234.755 435.888 234.77 436.164 234.91C436.439 235.05 436.649 235.3 436.737 235.595Z" fill="#DFB212"/>
<path d="M453.976 274.924C453.631 275.077 445.449 278.629 437.676 276.974L437.517 276.94C429.697 275.202 425.547 268.838 425.374 268.568C425.229 268.341 425.211 268.056 425.323 267.785C425.435 267.514 425.668 267.285 425.961 267.156C426.305 267.004 434.487 263.449 442.261 265.104L442.42 265.138C450.239 266.878 454.389 273.242 454.562 273.512C454.707 273.739 454.726 274.024 454.613 274.295C454.501 274.565 454.268 274.795 453.976 274.924Z" fill="#DFB212"/>
</svg>
